<svg width="88" height="62" viewBox="0 0 88 62" fill="none" xmlns="http://www.w3.org/2000/svg">
<path fill-rule="evenodd" clip-rule="evenodd" d="M47.4242 1.02833C52.4431 -0.652282 57.9211 -0.261194 62.653 2.11555L84.323 12.9999C87.6075 14.6497 88.9389 18.6619 87.2966 21.9615C85.6543 25.261 81.6603 26.5984 78.3757 24.9486L56.7058 14.0642C55.1285 13.272 53.3025 13.1416 51.6295 13.7018L17.8451 25.0146C11.6432 27.0914 11.8352 35.9697 18.1212 37.7739L55.3 48.4449C58.3579 49.3225 61.4017 47.016 61.4017 43.8214C61.4017 41.1657 59.2587 39.0129 56.615 39.0129H54.7525C51.0803 39.0129 48.1033 36.0223 48.1033 32.3333C48.1033 28.6443 51.0803 25.6538 54.7525 25.6538H56.615C66.6032 25.6538 74.7001 33.7877 74.7001 43.8214C74.7001 55.8915 63.1997 64.6059 51.6467 61.2899L14.4678 50.6189C-4.3899 45.2065 -4.96615 18.5714 13.6398 12.3411L47.4242 1.02833Z" fill="#F3F4F6"/>
</svg>
